<?xml version="1.0" encoding="UTF-8"?>
<svg id="Layer_2" data-name="Layer 2" xmlns="http://www.w3.org/2000/svg" xmlns:xlink="http://www.w3.org/1999/xlink" viewBox="0 0 369.93 343.66">
  <defs>
    <style>
      .cls-1 {
        fill: url(#linear-gradient);
      }
    </style>
    <linearGradient id="linear-gradient" x1="0" y1="171.83" x2="369.93" y2="171.83" gradientUnits="userSpaceOnUse">
      <stop offset="0" stop-color="#4a00e0"/>
      <stop offset=".22" stop-color="#5205e0"/>
      <stop offset=".59" stop-color="#6b15e0"/>
      <stop offset="1" stop-color="#8e2de2"/>
    </linearGradient>
  </defs>
  <g id="Layer_1-2" data-name="Layer 1">
    <path class="cls-1" d="M24.77,213.12c5.95,6.08,2.68,13.77-3.22,18.39-6.07,5.93-13.79,2.69-18.39-3.23-5.94-6.06-2.68-13.78,3.22-18.39,6.07-5.94,13.78-2.68,18.39,3.22ZM368.05,136.5c-10.22-21.79-19.6-60.18-52.3-46.77l-92.47,41.5c-13.25,5.94-19.16,21.49-13.22,34.74,14.84,30.28,46.01,7.79,67.04-.88,13.72-6.17,28.61,6.65,24.14,21-6.47,20.09-20.06,34.14-40.96,43.61-94.9,50.1-172.92-111.17-75.16-153.15,19.01-8.4,37.38-10.34,55.23-2.25,13.78,7.59,31.13-3.64,43.76-9.05,17.87-8.01,21.39-31.04,8.81-44.02-11.91-10.19-27.51-14.91-43.05-18.39-28.14-4.74-56.37-4.07-84.21,6.12-61.9,21.83-95.46,80.12-99.66,141.33l-36.42,36.42c-4.19,4.18-4.19,10.97,0,15.16,5.97,5.97,15.64,5.97,21.61,0l31.66-31.66c3.83-3,9.69-2.12,13.2,1.35,4.31,3.56,8.15,9.13,5.63,14.71-.18.48-.64,1.17-1,1.52l-48.64,48.62c-5.96,6.1-2.65,13.76,3.23,18.4,4.19,4.18,10.98,4.18,15.16,0l50.48-50.49c3.82-3,9.69-2.14,13.2,1.35,13.4,11.36,3.11,18.63-5.98,27.6.24-.79-26.41,25.79-27.26,26.82-5.97,5.97-5.97,15.65,0,21.61,4.19,4.19,10.98,4.19,15.16,0,1.01-1.16,30.83-30.35,30.33-30.94,8.14-9.13,14.73-13.44,24.18-2.56,4.18,4.19,4.18,10.98,0,15.16l-24.79,24.79s.01,0,.01.01c-7.03,6.1-4.36,14.28,2.19,19.42,4.19,4.18,10.98,4.18,15.16,0l30.54-30.54c5.51-4.38,12.61-.26,16.41,4.59,6.02,6.16,2.57,13.89-3.37,18.53-2.75,2.75-1.03,7.48,2.85,7.78,69.34,7.05,138.59-44.1,154.68-110.05,5-19.44,7.76-40.89,3.8-61.39ZM123.42,310.51c-6.12,6.84-21.5,16.51-11.63,26.78,4.62,5.91,12.33,9.17,18.39,3.23,6.12-6.85,21.51-16.52,11.61-26.78-4.61-5.91-12.32-9.16-18.38-3.22ZM75.62,285.33l-17.53,17.54c-4.19,4.18-4.19,10.98,0,15.16,4.62,5.9,12.32,9.17,18.39,3.22l17.53-17.53c4.19-4.19,4.19-10.97,0-15.16-4.61-5.91-12.32-9.16-18.4-3.24Z"/>
  </g>
</svg>